<?xml version="1.0" standalone="no"?>
<!DOCTYPE svg PUBLIC "-//W3C//DTD SVG 20010904//EN"
 "http://www.w3.org/TR/2001/REC-SVG-20010904/DTD/svg10.dtd">
<svg version="1.0" xmlns="http://www.w3.org/2000/svg"
 width="1353.000000pt" height="1353.000000pt" viewBox="0 0 1353.000000 1353.000000"
 preserveAspectRatio="xMidYMid meet">
<metadata>
Created by potrace 1.11, written by Peter Selinger 2001-2013
</metadata>
<g transform="translate(0.000000,1353.000000) scale(0.100000,-0.100000)"
fill="#000000" stroke="none">
<path d="M0 6765 l0 -6765 6765 0 6765 0 0 6765 0 6765 -6765 0 -6765 0 0
-6765z m7783 5364 c1051 -82 1951 -799 2276 -1815 l32 -101 152 -6 c437 -18
859 -148 1247 -385 674 -413 1119 -1114 1222 -1922 19 -154 19 -3986 0 -4140
-99 -778 -503 -1437 -1152 -1877 -270 -183 -635 -329 -984 -393 -221 -40 -291
-41 -2661 -38 -2128 3 -2287 5 -2385 21 -584 99 -1045 324 -1436 700 -319 306
-537 650 -675 1062 l-46 140 -144 6 c-654 29 -1251 290 -1717 752 -440 434
-711 1004 -762 1602 -8 92 -10 712 -8 2110 l4 1980 22 125 c104 575 344 1038
746 1435 211 209 421 358 681 485 300 147 619 235 938 259 138 11 4513 11
4650 0z"/>
<path d="M3240 11353 c-684 -48 -1260 -441 -1550 -1058 -85 -179 -136 -366
-160 -580 -8 -71 -10 -662 -8 -2025 l3 -1925 27 -125 c56 -260 142 -465 279
-670 254 -379 651 -655 1098 -761 89 -22 262 -45 321 -45 l35 1 2 1805 c1
1252 5 1837 13 1910 51 482 237 941 538 1330 142 183 380 406 579 543 356 245
802 407 1223 446 76 7 708 11 1868 11 963 0 1752 3 1752 8 0 18 -103 218 -145
284 -296 457 -738 745 -1280 835 -91 15 -308 17 -2325 18 -1224 0 -2245 0
-2270 -2z"/>
<path d="M5765 9423 c-256 -21 -459 -78 -682 -188 -193 -95 -331 -194 -481
-346 -297 -299 -474 -667 -522 -1084 -6 -58 -10 -713 -10 -1867 l0 -1778 1793
0 c1965 0 1925 -1 2160 59 244 63 434 154 632 302 397 295 647 715 720 1206
14 96 16 303 16 1893 0 982 0 1791 -1 1798 0 9 -364 12 -1792 10 -986 -1
-1811 -3 -1833 -5z m45 -1961 l5 -994 388 1 387 0 0 -189 0 -190 -625 0 -625
0 0 1185 0 1185 233 -2 232 -3 5 -993z m2085 -247 c206 -31 347 -97 471 -220
65 -64 90 -97 123 -165 57 -118 74 -193 74 -325 -1 -319 -168 -557 -462 -661
-36 -13 -65 -27 -64 -31 1 -5 124 -215 273 -468 150 -253 274 -466 277 -472 4
-10 -54 -13 -269 -13 l-273 0 -115 203 c-63 111 -174 308 -247 437 -73 129
-139 246 -147 260 -8 14 -17 24 -20 23 -3 -2 -53 -3 -111 -3 l-105 0 0 -460 0
-460 -240 0 -240 0 0 1185 0 1185 488 0 c381 0 509 -3 587 -15z"/>
<path d="M7343 6832 l-43 -3 0 -345 0 -346 258 4 c241 4 261 6 316 27 110 44
177 129 197 253 21 127 -9 238 -86 314 -80 80 -135 94 -395 97 -113 1 -224 1
-247 -1z"/>
<path d="M10180 7667 c-1 -969 -3 -1796 -6 -1837 -32 -458 -174 -894 -412
-1260 -48 -74 -136 -195 -152 -210 -3 -3 -23 -27 -44 -55 -66 -84 -288 -297
-395 -378 -224 -172 -467 -305 -732 -401 -136 -49 -262 -82 -434 -113 l-150
-27 -1827 -6 -1827 -5 33 -75 c137 -313 414 -621 733 -813 136 -82 342 -166
495 -202 212 -49 100 -47 2538 -47 1671 0 2298 3 2360 12 191 26 364 78 539
161 601 286 997 870 1040 1530 10 165 10 3622 0 3769 -30 418 -169 762 -433
1077 -192 229 -486 433 -766 532 -170 60 -262 79 -517 106 l-43 5 0 -1763z"/>
</g>
</svg>
