<?xml version="1.0" encoding="utf-8"?>
<!-- Generator: Adobe Illustrator 24.2.1, SVG Export Plug-In . SVG Version: 6.00 Build 0)  -->
<svg version="1.1" id="Layer_1" xmlns="http://www.w3.org/2000/svg" xmlns:xlink="http://www.w3.org/1999/xlink" x="0px" y="0px"
	 viewBox="0 0 718.5 507.9" style="enable-background:new 0 0 718.5 507.9;" xml:space="preserve">
<style type="text/css">
	.st0{opacity:0.8;}
	.st1{opacity:0.4;fill:url(#SVGID_1_);enable-background:new    ;}
	.st2{opacity:0.8;fill:url(#SVGID_2_);enable-background:new    ;}
	.st3{opacity:0.8;fill:url(#SVGID_3_);enable-background:new    ;}
	.st4{fill:url(#SVGID_4_);}
	.st5{fill:url(#SVGID_5_);}
	.st6{fill:url(#SVGID_6_);}
	.st7{opacity:0.3;}
	.st8{opacity:0.3;fill:url(#SVGID_7_);enable-background:new    ;}
	.st9{opacity:0.3;fill:url(#SVGID_8_);enable-background:new    ;}
	.st10{opacity:0.3;fill:url(#SVGID_9_);enable-background:new    ;}
	.st11{fill:url(#SVGID_10_);}
	.st12{fill:url(#SVGID_11_);}
	.st13{fill:url(#SVGID_12_);}
	.st14{fill:url(#SVGID_13_);}
	.st15{fill:url(#SVGID_14_);}
	.st16{fill:url(#SVGID_15_);}
	.st17{opacity:0.3;fill:url(#SVGID_16_);enable-background:new    ;}
	.st18{opacity:0.3;fill:url(#SVGID_17_);enable-background:new    ;}
	.st19{opacity:0.3;fill:url(#SVGID_18_);enable-background:new    ;}
</style>
<g class="st0">
	
		<linearGradient id="SVGID_1_" gradientUnits="userSpaceOnUse" x1="151.2" y1="612.888" x2="267.5" y2="612.888" gradientTransform="matrix(1 0 0 1 0 -375.038)">
		<stop  offset="0" style="stop-color:#F6E3C5;stop-opacity:0.4"/>
		<stop  offset="0.1989" style="stop-color:#E9BB69"/>
	</linearGradient>
	<path class="st1" d="M151.2,221.4v32.9L267.5,332v-32.9V143.7L151.2,221.4z"/>
	
		<linearGradient id="SVGID_2_" gradientUnits="userSpaceOnUse" x1="267.6" y1="651.738" x2="383.9" y2="651.738" gradientTransform="matrix(1 0 0 1 0 -375.038)">
		<stop  offset="0" style="stop-color:#FFEDBF"/>
		<stop  offset="0.2814" style="stop-color:#E3AA3C"/>
	</linearGradient>
	<path class="st2" d="M383.9,254.3v-32.9l-116.3,77.7V332L383.9,254.3z"/>
	
		<linearGradient id="SVGID_3_" gradientUnits="userSpaceOnUse" x1="151.2" y1="596.488" x2="383.8" y2="596.488" gradientTransform="matrix(1 0 0 1 0 -375.038)">
		<stop  offset="1.249210e-03" style="stop-color:#FFEDBF"/>
		<stop  offset="0.574" style="stop-color:#E3AA3C"/>
	</linearGradient>
	<path class="st3" d="M267.5,143.7l-116.3,77.8l116.3,77.7l116.3-77.7"/>
</g>
<linearGradient id="SVGID_4_" gradientUnits="userSpaceOnUse" x1="208.65" y1="595.738" x2="208.65" y2="407.238" gradientTransform="matrix(1 0 0 1 0 -375.038)">
	<stop  offset="0" style="stop-color:#98C3A2"/>
	<stop  offset="0.7608" style="stop-color:#2B8341"/>
</linearGradient>
<path class="st4" d="M150.5,110v32.9l116.3,77.8v-32.9V32.2L150.5,110z"/>
<linearGradient id="SVGID_5_" gradientUnits="userSpaceOnUse" x1="266.9" y1="540.338" x2="383.2" y2="540.338" gradientTransform="matrix(1 0 0 1 0 -375.038)">
	<stop  offset="0" style="stop-color:#98C3A2"/>
	<stop  offset="0.7608" style="stop-color:#2B8341"/>
</linearGradient>
<path class="st5" d="M383.2,142.9V110l-116.3,77.7v32.9L383.2,142.9z"/>
<linearGradient id="SVGID_6_" gradientUnits="userSpaceOnUse" x1="266.85" y1="562.738" x2="266.85" y2="407.238" gradientTransform="matrix(1 0 0 1 0 -375.038)">
	<stop  offset="0" style="stop-color:#98C3A2"/>
	<stop  offset="0.7608" style="stop-color:#2B8341"/>
</linearGradient>
<path class="st6" d="M266.8,32.2L150.5,110l116.3,77.7L383.2,110"/>
<g class="st7">
	
		<linearGradient id="SVGID_7_" gradientUnits="userSpaceOnUse" x1="209.35" y1="563.538" x2="209.35" y2="375.038" gradientTransform="matrix(1 0 0 1 0 -375.038)">
		<stop  offset="0" style="stop-color:#98C3A2"/>
		<stop  offset="0.7608" style="stop-color:#2B8341"/>
	</linearGradient>
	<path class="st8" d="M151.2,77.8v32.9l116.3,77.8v-32.9V0L151.2,77.8z"/>
	
		<linearGradient id="SVGID_8_" gradientUnits="userSpaceOnUse" x1="267.6" y1="508.138" x2="383.9" y2="508.138" gradientTransform="matrix(1 0 0 1 0 -375.038)">
		<stop  offset="0" style="stop-color:#98C3A2"/>
		<stop  offset="0.7608" style="stop-color:#2B8341"/>
	</linearGradient>
	<path class="st9" d="M383.9,110.6V77.8l-116.3,77.7v32.9L383.9,110.6z"/>
	
		<linearGradient id="SVGID_9_" gradientUnits="userSpaceOnUse" x1="267.5" y1="530.538" x2="267.5" y2="375.038" gradientTransform="matrix(1 0 0 1 0 -375.038)">
		<stop  offset="0" style="stop-color:#98C3A2"/>
		<stop  offset="0.7608" style="stop-color:#2B8341"/>
	</linearGradient>
	<path class="st10" d="M267.5,0L151.2,77.8l116.3,77.7l116.3-77.7"/>
</g>
<linearGradient id="SVGID_10_" gradientUnits="userSpaceOnUse" x1="58.15" y1="732.838" x2="58.15" y2="544.438" gradientTransform="matrix(1 0 0 1 0 -375.038)">
	<stop  offset="0" style="stop-color:#98C3A2"/>
	<stop  offset="0.7608" style="stop-color:#2B8341"/>
</linearGradient>
<path class="st11" d="M0,247.1V280l116.3,77.8v-32.9V169.4L0,247.1z"/>
<linearGradient id="SVGID_11_" gradientUnits="userSpaceOnUse" x1="116.4" y1="677.488" x2="232.7" y2="677.488" gradientTransform="matrix(1 0 0 1 0 -375.038)">
	<stop  offset="0" style="stop-color:#98C3A2"/>
	<stop  offset="0.7608" style="stop-color:#2B8341"/>
</linearGradient>
<path class="st12" d="M232.7,280v-32.9l-116.3,77.8v32.9L232.7,280z"/>
<linearGradient id="SVGID_12_" gradientUnits="userSpaceOnUse" x1="116.3" y1="699.938" x2="116.3" y2="544.438" gradientTransform="matrix(1 0 0 1 0 -375.038)">
	<stop  offset="0" style="stop-color:#98C3A2"/>
	<stop  offset="0.7608" style="stop-color:#2B8341"/>
</linearGradient>
<path class="st13" d="M116.3,169.4L0,247.1l116.3,77.8l116.3-77.8"/>
<linearGradient id="SVGID_13_" gradientUnits="userSpaceOnUse" x1="543.35" y1="882.938" x2="543.35" y2="694.438" gradientTransform="matrix(1 0 0 1 0 -375.038)">
	<stop  offset="0" style="stop-color:#98C3A2"/>
	<stop  offset="0.7608" style="stop-color:#2B8341"/>
</linearGradient>
<path class="st14" d="M485.2,397.2v32.9l116.3,77.8V475V319.4L485.2,397.2z"/>
<linearGradient id="SVGID_14_" gradientUnits="userSpaceOnUse" x1="601.5" y1="827.588" x2="717.8" y2="827.588" gradientTransform="matrix(1 0 0 1 0 -375.038)">
	<stop  offset="0" style="stop-color:#98C3A2"/>
	<stop  offset="0.7608" style="stop-color:#2B8341"/>
</linearGradient>
<path class="st15" d="M717.8,430.1v-32.9L601.5,475v32.9L717.8,430.1z"/>
<linearGradient id="SVGID_15_" gradientUnits="userSpaceOnUse" x1="601.5" y1="850.038" x2="601.5" y2="694.438" gradientTransform="matrix(1 0 0 1 0 -375.038)">
	<stop  offset="0" style="stop-color:#98C3A2"/>
	<stop  offset="0.7608" style="stop-color:#2B8341"/>
</linearGradient>
<path class="st16" d="M601.5,319.4l-116.3,77.8L601.5,475l116.3-77.8"/>
<g class="st7">
	
		<linearGradient id="SVGID_16_" gradientUnits="userSpaceOnUse" x1="544.05" y1="850.738" x2="544.05" y2="662.238" gradientTransform="matrix(1 0 0 1 0 -375.038)">
		<stop  offset="0" style="stop-color:#98C3A2"/>
		<stop  offset="0.7608" style="stop-color:#2B8341"/>
	</linearGradient>
	<path class="st17" d="M485.9,365v32.9l116.3,77.8v-32.9V287.2L485.9,365z"/>
	
		<linearGradient id="SVGID_17_" gradientUnits="userSpaceOnUse" x1="602.2" y1="795.388" x2="718.5" y2="795.388" gradientTransform="matrix(1 0 0 1 0 -375.038)">
		<stop  offset="0" style="stop-color:#98C3A2"/>
		<stop  offset="0.7608" style="stop-color:#2B8341"/>
	</linearGradient>
	<path class="st18" d="M718.5,397.9V365l-116.3,77.8v32.9L718.5,397.9z"/>
	
		<linearGradient id="SVGID_18_" gradientUnits="userSpaceOnUse" x1="602.2" y1="817.838" x2="602.2" y2="662.238" gradientTransform="matrix(1 0 0 1 0 -375.038)">
		<stop  offset="0" style="stop-color:#98C3A2"/>
		<stop  offset="0.7608" style="stop-color:#2B8341"/>
	</linearGradient>
	<path class="st19" d="M602.2,287.2L485.9,365l116.3,77.8L718.5,365"/>
</g>
</svg>
